<mxfile host="app.diagrams.net" modified="2024-06-12T20:15:29.873Z" agent="Mozilla/5.0 (Windows NT 10.0; Win64; x64) AppleWebKit/537.36 (KHTML, like Gecko) Chrome/125.0.0.0 Safari/537.36" version="24.5.1" etag="_jcA8_dMwhtfaHQpIOx2" type="github">
  <diagram name="Страница — 1" id="GJVViDBSivM-kUQuQnPm">
    <mxGraphModel>
      <root>
        <mxCell id="0" />
        <mxCell id="1" parent="0" />
      </root>
    </mxGraphModel>
  </diagram>
</mxfile>
